<?xml version="1.0" encoding="UTF-8"?><svg id="a" xmlns="http://www.w3.org/2000/svg" viewBox="0 0 1306 432"><defs><style>.b{fill:#f2f2f2;}</style></defs><polygon class="b" points="18.33 84.97 18.33 14.01 422 14.01 422 417.68 18.33 417.68 18.33 342.64 64.28 342.64 64.28 370.56 375.47 370.56 375.47 59.38 64.28 59.38 64.28 84.97 18.33 84.97"/><polygon class="b" points="18.33 315.3 18.33 113.47 64.28 113.47 144.94 237.75 144.94 113.47 190.5 113.47 190.5 315.3 146.3 315.3 64.54 189.15 64.54 315.3 18.33 315.3"/><g><path class="b" d="M498.28,123.13l3.79,.65v125.8h-50.55V77.15h68.32l56.3,125.41-3.79,.78V77.15h50.55V249.58h-68.71l-55.91-126.45Z"/><path class="b" d="M645.11,163.23c0-12.54,2.29-24.23,6.86-35.07,4.57-10.84,10.95-20.31,19.14-28.41,8.18-8.1,17.79-14.41,28.8-18.94,11.02-4.53,22.93-6.79,35.73-6.79s25.1,2.27,36.12,6.79c11.02,4.53,20.59,10.84,28.74,18.94,8.14,8.1,14.46,17.57,18.94,28.41,4.48,10.84,6.73,22.53,6.73,35.07s-2.18,24.36-6.53,35.21c-4.36,10.84-10.56,20.34-18.62,28.48-8.06,8.14-17.62,14.48-28.67,19.01-11.06,4.53-23.3,6.79-36.71,6.79s-26.19-2.27-37.3-6.79c-11.1-4.53-20.62-10.86-28.54-19.01-7.93-8.14-14.02-17.64-18.29-28.48-4.27-10.84-6.4-22.58-6.4-35.21Zm52.78,0c0,7.75,1.57,14.83,4.7,21.23,3.13,6.4,7.53,11.5,13.19,15.28,5.66,3.79,12.28,5.68,19.86,5.68s14.32-1.89,19.99-5.68c5.66-3.79,10.06-8.88,13.19-15.28s4.7-13.48,4.7-21.23-1.57-14.8-4.7-21.16c-3.13-6.36-7.53-11.45-13.19-15.28-5.66-3.83-12.32-5.75-19.99-5.75s-14.2,1.92-19.86,5.75c-5.66,3.83-10.06,8.93-13.19,15.28-3.14,6.36-4.7,13.41-4.7,21.16Z"/><path class="b" d="M844.72,77.15h77.33c10.45,0,19.68,2.2,27.69,6.6,8.01,4.4,14.28,10.67,18.81,18.81,4.53,8.14,6.79,17.79,6.79,28.94s-1.81,20.01-5.42,26.85c-3.62,6.84-7.95,11.95-13,15.35-5.05,3.4-9.71,5.57-13.98,6.53l41.28,69.37h-56.69l-35.53-65.45h3.4v65.45h-50.69V77.15Zm50.69,72.76h8.36c4.62,0,9.03-1.09,13.26-3.27,4.22-2.18,6.33-6.66,6.33-13.46s-2.05-11.28-6.14-13.46c-4.09-2.18-8.45-3.27-13.06-3.27h-8.75v33.44Z"/><path class="b" d="M1009.05,77.15h50.69V205.69h58.92v43.89h-109.6V77.15Z"/><path class="b" d="M1142.03,77.15h59.57c18.37,0,33.68,3.68,45.92,11.04,12.23,7.36,21.44,17.53,27.63,30.5,6.18,12.98,9.28,27.82,9.28,44.55s-3.09,31.7-9.28,44.68c-6.18,12.98-15.39,23.17-27.63,30.57-12.24,7.4-27.54,11.1-45.92,11.1h-59.57V77.15Zm50.55,44.55v83.34h4.44c7.23,0,13.33-1.83,18.29-5.49s8.75-8.64,11.37-14.96c2.61-6.31,3.92-13.34,3.92-21.1s-1.29-14.91-3.85-21.23c-2.57-6.31-6.36-11.32-11.36-15.02-5.01-3.7-11.13-5.55-18.35-5.55h-4.44Z"/></g><g><path class="b" d="M460.43,268h47.96v7.71h-39.88v36.8h37.31v7.71h-37.31v44.73h-8.08v-96.95Z"/><path class="b" d="M527.05,268h8.3v96.95h-8.3v-96.95Z"/><path class="b" d="M565.38,276.08l.44,.07v88.79h-8.23v-96.95h12.12l55.38,88.79-.37,.07v-88.87h8.15v96.95h-12.19l-55.3-88.87Z"/><path class="b" d="M682.53,268h9.03l34.74,96.95h-8.74l-9.03-25.12h-42.89l-9.11,25.12h-8.89l34.89-96.95Zm-14.4,64.12h37.97l-18.95-53.76h-.22l-18.8,53.76Z"/><path class="b" d="M745.76,276.08l.44,.07v88.79h-8.23v-96.95h12.12l55.38,88.79-.37,.07v-88.87h8.15v96.95h-12.19l-55.3-88.87Z"/><path class="b" d="M879.65,358.63c6.76,0,12.5-.91,17.22-2.72,4.72-1.81,8.07-3.57,10.03-5.29l3.6,7.12c-2.11,1.96-5.86,3.94-11.27,5.95-5.41,2.01-11.94,3.01-19.57,3.01-7.15,0-13.75-1.29-19.79-3.86-6.05-2.57-11.32-6.14-15.83-10.72-4.5-4.58-8-9.89-10.5-15.94-2.5-6.05-3.75-12.57-3.75-19.57s1.24-13.55,3.71-19.65c2.47-6.1,5.96-11.44,10.47-16.05,4.5-4.6,9.79-8.2,15.86-10.8,6.07-2.59,12.68-3.89,19.83-3.89,7.64,0,14.16,1,19.57,3.01,5.41,2.01,9.17,3.99,11.27,5.95l-3.6,7.12c-1.96-1.71-5.3-3.48-10.03-5.29-4.73-1.81-10.47-2.72-17.22-2.72-5.68,0-10.99,1.02-15.94,3.05-4.95,2.03-9.3,4.91-13.07,8.63-3.77,3.72-6.72,8.17-8.85,13.33-2.13,5.17-3.19,10.86-3.19,17.08s1.06,12,3.19,17.19c2.13,5.19,5.08,9.65,8.85,13.37,3.77,3.72,8.13,6.6,13.07,8.63,4.94,2.03,10.26,3.05,15.94,3.05Z"/><path class="b" d="M926.51,268h55.23v7.71h-47.08v36.8h45.9v7.64h-45.9v37.09h47.08v7.71h-55.23v-96.95Z"/></g></svg>